<svg width="324" height="304" viewBox="0 0 324 304" fill="none" xmlns="http://www.w3.org/2000/svg">
<path d="M164.276 27.1253C200.498 36.9086 215.642 15.9078 248.877 22.9875C285.076 30.6981 305.044 63.6951 306.942 66.9364C330.233 106.711 329.39 154.024 300.712 177.831C284.797 191.044 268.704 191.106 218.738 212.826C180.936 229.258 163.108 249.363 155.306 253.777C115.545 276.274 70.0284 262.228 36.5728 234.653C27.2615 226.979 -17.5594 189.631 8.78458 135.266C16.9425 118.43 17.7165 126.114 53.857 79.2142C91.9223 29.8176 138.121 20.0603 164.276 27.1253Z" fill="#F2F2F7"/>
<path d="M245.052 269.782C251.722 267.502 258.103 264.453 264.067 260.695C264.478 260.434 270.421 256.587 273.827 250.598C274.539 249.346 275.266 247.78 274.837 246.055C274.563 245.083 274.024 244.207 273.281 243.524C272.539 242.841 271.621 242.377 270.63 242.185C269.202 241.948 267.943 242.48 266.255 243.194C264.215 244.056 263.688 244.813 262.384 244.708C261.471 244.635 260.264 244.147 259.86 243.194C259.071 241.332 261.833 238.84 262.048 238.65C263.807 237.097 264.725 237.639 267.769 236.126C269.857 235.067 271.738 233.643 273.322 231.919C275.033 230.193 276.003 229.185 275.846 227.881C275.708 227.201 275.383 226.572 274.907 226.067C274.432 225.562 273.825 225.199 273.154 225.02C271.385 224.549 270.585 225.961 268.61 225.525C267.449 225.268 266.102 224.421 265.918 223.337C265.734 222.251 266.786 221.336 268.442 219.803C274.387 214.301 275.273 212.73 275.678 211.894C276.246 210.722 277.172 208.81 276.52 206.678C276.267 205.824 275.814 205.043 275.2 204.4C274.585 203.756 273.826 203.267 272.986 202.975C269.417 201.952 264.584 205.887 262.721 209.875C261.164 213.207 260.197 215.765 260.197 215.765C259.777 216.971 259.086 218.065 258.177 218.962C257.711 219.41 256.652 220.428 255.821 220.14C255.286 219.954 255.199 219.349 254.643 217.952C253.814 215.866 253.399 214.823 252.624 214.418C251.45 213.805 249.625 214.605 248.585 215.596C246.947 217.158 246.924 219.509 246.903 221.654C246.883 223.616 247.215 223.623 247.575 227.207C247.782 229.22 247.838 231.244 247.744 233.265C247.554 237.209 246.914 237.768 246.566 237.977C245.717 238.487 244.634 238.097 243.368 237.641C241.613 236.967 240.051 235.869 238.825 234.443C237.093 232.522 237.366 231.788 236.301 231.077C235.378 230.519 234.279 230.329 233.222 230.543C231.935 230.736 230.709 231.222 229.638 231.962C228.568 232.702 227.681 233.678 227.046 234.814C226.799 235.24 226.574 235.678 226.372 236.126C223.789 241.873 225.795 247.65 226.878 250.766C230.882 262.297 241.886 268.209 245.052 269.782V269.782Z" fill="#3CA05D"/>
<path d="M245.052 269.782C245.052 269.782 247.731 237.329 273.844 203.331L273.843 203.33C275.126 204.067 276.083 205.262 276.522 206.676C277.171 208.808 276.245 210.72 275.68 211.893C275.274 212.73 274.385 214.3 268.444 219.802C266.784 221.336 265.733 222.251 265.92 223.336C266.102 224.42 267.449 225.266 268.612 225.523C270.585 225.963 271.384 224.552 273.156 225.019C273.826 225.199 274.433 225.562 274.908 226.067C275.384 226.572 275.709 227.2 275.848 227.879C276.003 229.184 275.035 230.194 273.324 231.918C271.739 233.64 269.858 235.065 267.771 236.124C264.723 237.639 263.807 237.098 262.05 238.649C261.835 238.841 259.072 241.333 259.862 243.193C260.264 244.147 261.47 244.637 262.386 244.707C263.685 244.815 264.214 244.057 266.257 243.193C267.944 242.482 269.201 241.95 270.631 242.183C271.622 242.376 272.54 242.84 273.283 243.523C274.025 244.206 274.564 245.082 274.838 246.053C275.264 247.779 274.539 249.344 273.829 250.597C270.421 256.585 264.48 260.432 264.069 260.694C258.106 264.453 251.724 267.503 245.054 269.781" fill="#4FBA75"/>
<path d="M247.245 257.85C245.781 257.234 244.377 256.485 243.051 255.611C241.713 254.742 240.462 253.747 239.314 252.64C238.161 251.521 237.199 250.222 236.466 248.793C236.11 248.072 235.848 247.309 235.687 246.521C235.541 245.737 235.512 244.935 235.602 244.142C235.608 245.714 236.015 247.258 236.786 248.629C237.547 249.992 238.51 251.233 239.642 252.308C240.76 253.41 241.967 254.416 243.252 255.316C244.536 256.233 245.869 257.079 247.245 257.85ZM256.109 232.679C255.311 231.868 254.584 230.99 253.938 230.054C253.276 229.124 252.693 228.14 252.195 227.112C251.691 226.082 251.306 224.997 251.049 223.879C250.794 222.761 250.752 221.604 250.927 220.471C250.932 221.594 251.09 222.711 251.398 223.791C251.718 224.862 252.125 225.904 252.616 226.909C253.105 227.919 253.646 228.903 254.236 229.857C254.825 230.816 255.449 231.757 256.109 232.679V232.679Z" fill="#4FBA75"/>
<path d="M247.228 257.671C248.786 257.914 250.357 258.072 251.933 258.144C253.499 258.229 255.07 258.184 256.629 258.007C258.184 257.861 259.708 257.48 261.148 256.877C262.601 256.275 263.875 255.312 264.85 254.079C264.431 254.758 263.914 255.371 263.314 255.898C262.701 256.418 262.024 256.857 261.299 257.204C259.839 257.875 258.28 258.303 256.683 258.47C255.096 258.633 253.498 258.643 251.909 258.5C250.326 258.368 248.759 258.091 247.228 257.671ZM255.799 232.399C256.888 232.08 257.959 231.725 259.014 231.336C260.068 230.95 261.101 230.51 262.109 230.018C263.115 229.53 264.079 228.962 264.993 228.317C265.902 227.658 266.717 226.877 267.414 225.996C266.851 226.996 266.104 227.88 265.213 228.602C264.32 229.322 263.348 229.938 262.315 230.436C261.289 230.938 260.223 231.352 259.128 231.675C258.041 232.012 256.927 232.254 255.799 232.399Z" fill="#C0E2CC"/>
<path d="M245.316 267.598C245.647 264.853 246.175 262.134 246.754 259.429C247.378 256.734 248.059 254.05 248.855 251.4C249.251 250.074 249.631 248.742 250.094 247.439C250.55 246.132 250.95 244.805 251.454 243.516L252.915 239.629L254.508 235.795C256.702 230.711 259.189 225.759 261.956 220.963C263.29 218.538 264.82 216.229 266.295 213.89C267.019 212.711 267.856 211.607 268.647 210.473L271.047 207.092C267.946 211.669 264.92 216.295 262.269 221.141C259.557 225.95 257.109 230.904 254.937 235.979C252.736 241.043 250.82 246.226 249.198 251.504C248.361 254.135 247.645 256.802 246.975 259.481C246.324 262.164 245.722 264.863 245.316 267.598Z" fill="#C0E2CC"/>
<path d="M232.438 303.291H263.484L271.803 269.945H224.119L232.438 303.291Z" fill="#601F24"/>
<path d="M223.166 270.15H272.756C274.316 270.15 275.581 268.886 275.581 267.326C275.581 265.766 274.316 264.502 272.756 264.502H223.166C221.606 264.502 220.341 265.766 220.341 267.326C220.341 268.886 221.606 270.15 223.166 270.15Z" fill="#7A3C43"/>
<path d="M143.288 236.159L163.616 282.079L151.949 287.205L131.445 252.559L143.288 236.159Z" fill="#104F54"/>
<path d="M143.288 236.159L131.445 252.559L135.841 259.988C141.28 250.326 142.513 240.748 143.737 237.173L143.288 236.159Z" fill="#0A3E3F"/>
<path d="M117.971 195.859C117.971 195.859 134.39 214.142 137.101 213.257C137.101 213.257 137.946 216.322 159.786 200.216C159.786 200.216 162.26 203.801 165.56 201.621L171.806 197.909C171.806 197.909 175.224 202.917 176.578 201.827C176.578 201.827 176.991 198.527 169.419 190.956C169.419 190.956 169.273 189.866 158.902 194.462C152.4 197.271 145.465 198.945 138.397 199.411C138.397 199.411 133.159 195.346 128.973 186.919L117.971 195.859Z" fill="#F6B98A"/>
<path d="M108.523 223.982C108.523 223.982 148.552 217.186 144.309 234.863C144.309 234.863 140.813 251.852 114.828 287.205L104.575 282.433C104.575 282.433 119.483 251.911 120.426 243.308L109.231 243.544L108.523 223.982Z" fill="#104F54"/>
<path d="M59.3366 214.897L48.0485 214.142C47.4582 214.101 46.8994 213.861 46.4637 213.461C46.0281 213.06 45.7415 212.524 45.6511 211.939L41.5665 185.871C41.4602 185.201 41.6184 184.515 42.0077 183.959C42.3971 183.402 42.9872 183.019 43.6537 182.89L55.0044 180.718C55.3517 180.652 55.7087 180.658 56.0538 180.734C56.3988 180.811 56.7246 180.957 57.0113 181.164C57.298 181.371 57.5396 181.634 57.7214 181.937C57.9032 182.24 58.0213 182.577 58.0687 182.927L62.0907 211.92C62.1453 212.305 62.1135 212.697 61.9977 213.067C61.8819 213.438 61.6849 213.778 61.4212 214.063C61.1575 214.349 60.8335 214.571 60.473 214.716C60.1124 214.86 59.7242 214.922 59.3366 214.897Z" fill="#4FBA75"/>
<path d="M56.142 303.203H52.5179L72.306 253.089H79.4163L56.142 303.203ZM103.31 303.254L80.3195 253.089H87.4298L107.266 303.254H103.31ZM155.661 217.029H248.817V223.981H155.661V217.029ZM237.505 303.291H233.465L224.954 223.982H237.505V303.291Z" fill="#874106"/>
<path d="M104.576 282.432C104.576 282.432 95.975 299.296 97.3108 300.789L110.536 301.025L112.098 296.534L106.363 294.885L110.823 285.341L104.576 282.432ZM152.998 286.744C152.998 286.744 158.125 298.825 158.44 300.71H169.794L168.585 294.492C168.585 294.492 164.757 295.576 159.522 283.878L152.998 286.744Z" fill="#F6B98A"/>
<path d="M120.102 297.34C117.78 296.42 114.867 294.299 113.698 293.411C113.533 293.285 113.341 293.197 113.137 293.153C112.934 293.109 112.723 293.11 112.52 293.157L112.19 293.23C111.97 293.279 111.764 293.38 111.59 293.524C111.415 293.668 111.278 293.851 111.188 294.058C108.929 299.315 107.731 300.23 107.527 300.355H95.384C95.015 300.355 94.6612 300.501 94.4004 300.762C94.1395 301.023 93.9929 301.377 93.9929 301.746C93.9929 302.115 94.1395 302.468 94.4004 302.729C94.6612 302.99 95.015 303.137 95.384 303.137L124.403 303.055C127.232 302.112 123.078 298.518 120.102 297.34ZM180.824 297.34C178.506 296.421 175.598 294.306 174.426 293.415C174.258 293.288 174.065 293.2 173.859 293.155C173.654 293.111 173.441 293.112 173.236 293.159L172.92 293.229C172.697 293.278 172.489 293.38 172.313 293.525C172.137 293.671 171.998 293.856 171.907 294.065C169.651 299.316 168.454 300.23 168.25 300.355H156.107C155.738 300.355 155.384 300.501 155.123 300.762C154.862 301.023 154.716 301.377 154.716 301.746C154.716 302.115 154.862 302.468 155.123 302.729C155.384 302.99 155.738 303.137 156.107 303.137H168.539C168.694 303.135 168.847 303.107 168.992 303.055H185.126C187.954 302.112 183.8 298.518 180.824 297.34Z" fill="#D4FCDF"/>
<path d="M116.184 141.785L105.016 150.265L107.993 167.476L113.945 158.696C114.144 157.045 114.746 155.468 115.697 154.103C116.647 152.739 117.919 151.628 119.398 150.869L119.498 150.818L116.184 141.785Z" fill="#F6B98A"/>
<path d="M116.184 141.785C116.184 141.785 119.307 139.723 119.13 139.664C118.967 139.61 114.005 136.956 119.025 133.176C119.556 132.751 120.189 132.474 120.861 132.37C121.533 132.267 122.22 132.343 122.854 132.589C124.118 133.131 125.019 134.391 122.783 137.307L130.089 131.356L147.825 139.9C147.825 139.9 143.436 144.455 141.833 148.387C141.74 148.621 141.668 148.864 141.62 149.111L141.097 151.648C141.037 151.952 140.906 152.237 140.714 152.479C140.522 152.722 140.274 152.915 139.993 153.043C139.711 153.171 139.403 153.229 139.094 153.214C138.785 153.199 138.484 153.111 138.216 152.956C138.006 152.828 137.81 152.678 137.631 152.509L137 153.538C136.874 153.745 136.671 153.893 136.436 153.951C136.202 154.01 135.953 153.973 135.745 153.85L132.646 152.018L130.868 154.967C130.803 155.074 130.715 155.165 130.61 155.233C130.506 155.301 130.387 155.344 130.263 155.359C130.139 155.374 130.013 155.361 129.895 155.32C129.777 155.28 129.67 155.213 129.582 155.125L129.087 154.63C129.087 154.63 124.934 157.258 119.498 150.818L116.184 141.785Z" fill="#F6B98A"/>
<path d="M144.663 143.359C143.573 140.614 140.396 140.256 140.364 140.252L140.437 139.547C140.585 139.562 144.075 139.958 145.322 143.097L144.663 143.359Z" fill="#020202"/>
<path d="M141.468 144.731C141.972 143.858 142.062 142.965 141.667 142.737C141.273 142.51 140.544 143.033 140.04 143.907C139.535 144.78 139.446 145.673 139.841 145.901C140.235 146.128 140.964 145.605 141.468 144.731Z" fill="#020202"/>
<path d="M112.847 144.319C112.847 144.319 95.6789 125.228 121.958 106.726C121.958 106.726 141.284 97.1813 151.183 116.272C151.183 116.272 166.621 118.157 160.611 132.417C154.601 146.676 130.914 138.78 130.089 131.356C130.089 131.356 129.853 135.362 122.783 137.307L119.13 139.664L112.847 144.319Z" fill="#874106"/>
<path d="M122.854 132.589C122.258 132.344 121.609 132.257 120.969 132.336C120.33 132.416 119.722 132.66 119.204 133.044C113.889 136.894 118.965 139.609 119.13 139.664L122.783 137.307C125.019 134.391 124.118 133.131 122.854 132.589Z" fill="#F6B98A"/>
<path d="M105.341 149.858C105.341 149.858 103.81 158.696 113.945 158.696L130.324 184.975C130.324 184.975 125.493 193.224 116.066 196.641L112.295 191.339C112.295 191.339 100.746 205.834 108.524 223.982L68.3384 221.448C68.3384 221.448 63.1536 185.211 105.341 149.858Z" fill="#ED860A"/>
<path d="M111.771 253.09H47.7684C47.4674 253.09 47.1693 253.031 46.8913 252.915C46.6132 252.8 46.3606 252.631 46.1478 252.418C45.935 252.206 45.7662 251.953 45.651 251.675C45.5359 251.397 45.4767 251.099 45.4768 250.798V209.199C45.4769 208.862 45.5516 208.528 45.6956 208.223C45.8396 207.917 46.0494 207.647 46.3099 207.432C46.5704 207.217 46.8751 207.063 47.2024 206.979C47.5297 206.896 47.8714 206.886 48.203 206.95L112.206 219.321C112.728 219.422 113.199 219.702 113.538 220.113C113.877 220.523 114.062 221.039 114.063 221.571V250.798C114.063 251.405 113.821 251.988 113.391 252.418C112.962 252.848 112.379 253.089 111.771 253.089V253.09Z" fill="#4FBA75"/>
<path d="M171.341 303.291H166.975V223.982H179.525L171.341 303.291Z" fill="#874106"/>
<path d="M276.743 304H44.5031C44.3152 304 44.1349 303.925 44.0019 303.792C43.869 303.659 43.7943 303.479 43.7943 303.291C43.7943 303.103 43.869 302.923 44.0019 302.79C44.1349 302.657 44.3152 302.582 44.5031 302.582H276.743C276.931 302.582 277.112 302.657 277.245 302.79C277.377 302.923 277.452 303.103 277.452 303.291C277.452 303.479 277.377 303.659 277.245 303.792C277.112 303.925 276.931 304 276.743 304Z" fill="#139DA0"/>
<path d="M220.995 89.6896C220.807 89.6896 220.627 89.6149 220.494 89.482C220.361 89.3491 220.286 89.1688 220.286 88.9808V16.2998C220.286 16.1117 220.36 15.9313 220.493 15.7983C220.626 15.6654 220.807 15.5906 220.995 15.5906C221.183 15.5906 221.363 15.6654 221.496 15.7983C221.629 15.9313 221.704 16.1117 221.704 16.2998V88.9801C221.704 89.168 221.629 89.3482 221.496 89.4811C221.363 89.614 221.183 89.6894 220.995 89.6896Z" fill="#161616"/>
<path d="M220.994 127.33C225.269 127.33 228.734 123.865 228.734 119.59C228.734 115.316 225.269 111.851 220.994 111.851C216.72 111.851 213.255 115.316 213.255 119.59C213.255 123.865 216.72 127.33 220.994 127.33Z" fill="#ED860A"/>
<path d="M221.264 88.4523C228.344 88.4525 235.135 91.2652 240.141 96.2718C245.148 101.278 247.961 108.069 247.961 115.149V119.59H194.566V115.149C194.566 108.069 197.379 101.278 202.386 96.2716C207.392 91.265 214.184 88.4523 221.264 88.4523Z" fill="#139DA0"/>
<path d="M213.506 217.469H160.624C160.111 217.469 159.62 217.265 159.257 216.902C158.894 216.54 158.691 216.048 158.691 215.535C158.691 215.023 158.894 214.531 159.257 214.168C159.62 213.806 160.111 213.602 160.624 213.602H212.153L226.449 174.45C226.63 173.976 226.991 173.592 227.452 173.382C227.914 173.171 228.44 173.151 228.917 173.325C229.394 173.499 229.783 173.854 230 174.312C230.218 174.771 230.246 175.297 230.08 175.776L215.321 216.199C215.185 216.571 214.938 216.892 214.613 217.119C214.288 217.347 213.902 217.468 213.506 217.469Z" fill="#9F9E9F"/>
<path d="M230.111 197.097H245.051V216.718H230.111V197.097Z" fill="#63CECE"/>
<path d="M160.623 212.557H210.049V213.491H160.623V212.557Z" fill="#6D6D6D"/>
<path d="M246.629 211.968H245.052V210.933H246.629C247.202 210.94 247.771 210.833 248.303 210.618C248.835 210.404 249.318 210.086 249.726 209.683C250.134 209.28 250.458 208.8 250.679 208.271C250.9 207.742 251.014 207.175 251.014 206.601C251.014 206.028 250.9 205.46 250.679 204.931C250.458 204.402 250.134 203.923 249.726 203.52C249.318 203.117 248.835 202.799 248.303 202.584C247.771 202.37 247.202 202.263 246.629 202.27H245.052V201.235H246.629C248.042 201.251 249.391 201.823 250.385 202.828C251.378 203.833 251.936 205.188 251.936 206.601C251.936 208.014 251.378 209.37 250.385 210.375C249.391 211.38 248.042 211.952 246.629 211.968Z" fill="#63CECE"/>
<path d="M228.892 195.324H246.246V197.097H228.892V195.324ZM207.497 127.33C205.536 129.625 203.425 131.766 201.278 133.869C199.117 135.957 196.917 138.006 194.566 139.9C196.526 137.603 198.637 135.463 200.784 133.36C202.948 131.274 205.147 129.225 207.497 127.33ZM216.344 131.356C216.077 133.79 215.677 136.208 215.146 138.598C214.647 140.996 214.016 143.364 213.256 145.691C213.522 143.257 213.922 140.839 214.454 138.449C214.955 136.052 215.586 133.684 216.344 131.356ZM225.11 131.356C226.325 133.308 227.425 135.33 228.406 137.41C229.415 139.477 230.303 141.601 231.063 143.771C229.847 141.819 228.746 139.798 227.767 137.717C226.759 135.65 225.872 133.525 225.11 131.356ZM232.678 127.33C234.825 127.923 236.936 128.643 238.997 129.488C241.07 130.303 243.092 131.244 245.052 132.304C242.904 131.713 240.793 130.992 238.733 130.146C236.66 129.329 234.638 128.389 232.678 127.33Z" fill="#59C1BE"/>
<path d="M225.56 10.293H273.721M249.641 10.293V22.5229M221.247 22.5229H261.022M231.79 22.5229V32.5863M223.164 32.5863H257.188M231.79 10.293V0M260.064 10.293V0M261.022 32.7015V22.4078M27.4533 109.818H75.614M51.5336 109.818V122.047M23.1404 122.047H62.9149M33.683 122.047V132.11M25.0572 132.11H59.0812M33.683 109.818V99.5241M61.9565 109.818V99.5241M62.9149 132.226V121.933M249.88 163.908H298.041M273.961 163.908V176.137M245.567 176.137H285.342M256.11 176.137V186.201M247.484 186.201H281.508M256.11 163.908V153.614M284.383 163.908V153.614M285.342 186.316V176.023" stroke="#AFAFAF" stroke-miterlimit="10"/>
</svg>
