<svg width="140" height="48" viewBox="0 0 140 48" fill="none" xmlns="http://www.w3.org/2000/svg">
<path fill-rule="evenodd" clip-rule="evenodd" d="M139.103 28.5821C139.989 29.9729 139.579 31.8185 138.188 32.7043L121.458 43.3595C120.148 44.1937 118.417 43.8846 117.477 42.6486L111.521 34.8168C110.523 33.5044 110.777 31.6312 112.09 30.633C113.402 29.6347 115.275 29.8895 116.274 31.202L120.567 36.8471L134.981 27.6676C136.372 26.7818 138.217 27.1912 139.103 28.5821Z" fill="#FED430"/>
<path d="M117.763 45.7132C115.668 46.6827 113.335 47.2237 110.874 47.2237C101.805 47.2237 94.4531 39.8717 94.4531 30.8024C94.4531 21.7332 101.805 14.3811 110.874 14.3811C118.763 14.3811 125.353 19.9437 126.934 27.3605L119.085 32.8551H118.826C118.995 32.199 119.085 31.5112 119.085 30.8024C119.085 26.2678 115.409 22.5918 110.874 22.5918C106.34 22.5918 102.664 26.2678 102.664 30.8024C102.664 35.337 106.34 39.0131 110.874 39.0131C111.215 39.0131 111.551 38.9923 111.88 38.9521L111.901 39.0131L117.763 45.7132Z" fill="#FED430"/>
<path d="M0 47.2237V3.16981H15.3962C19.9677 3.16981 23.8922 4.05391 27.1698 5.8221C30.4906 7.54717 33.035 10.0701 34.8032 13.3908C36.6146 16.6685 37.5202 20.6146 37.5202 25.2291C37.5202 29.8868 36.6146 33.8544 34.8032 37.1321C33.035 40.4097 30.4906 42.9111 27.1698 44.6361C23.8491 46.3612 19.903 47.2237 15.3315 47.2237H0ZM9.44474 41.6604L5.69272 38.1024H14.6846C17.3154 38.1024 19.6011 37.6712 21.5418 36.8086C23.5256 35.903 25.0566 34.5014 26.1348 32.6038C27.2561 30.7062 27.8167 28.248 27.8167 25.2291C27.8167 22.2534 27.2776 19.8167 26.1995 17.9191C25.1213 16.0216 23.5903 14.6199 21.6065 13.7143C19.6658 12.7655 17.3801 12.2911 14.7493 12.2911H5.23989L9.44474 9.50944V41.6604Z" fill="#FED430"/>
<path d="M51.8253 47.2237H42.3806V15.5903H51.8253V47.2237ZM41.5396 5.62803C41.5396 3.94609 42.0355 2.5876 43.0275 1.55256C44.0625 0.51752 45.421 0 47.1029 0C48.7849 0 50.1218 0.51752 51.1137 1.55256C52.1488 2.5876 52.6663 3.94609 52.6663 5.62803C52.6663 7.26685 52.1488 8.60377 51.1137 9.63881C50.1218 10.6307 48.7849 11.1267 47.1029 11.1267C45.421 11.1267 44.0625 10.6307 43.0275 9.63881C42.0355 8.60377 41.5396 7.26685 41.5396 5.62803Z" fill="#FED430"/>
<path d="M71.3556 48C68.5093 48 65.9864 47.31 63.7869 45.9299C61.5874 44.5067 59.8624 42.5445 58.6117 40.0431C57.4041 37.4987 56.8004 34.6092 56.8004 31.3747C56.8004 28.1402 57.4257 25.2722 58.6764 22.7709C59.9271 20.2695 61.6521 18.3288 63.8516 16.9488C66.051 15.5256 68.574 14.814 71.4203 14.814C74.2236 14.814 76.6386 15.4609 78.6656 16.7547C80.7357 18.0054 82.3314 19.8598 83.4527 22.3181C84.6171 24.7763 85.1993 27.7952 85.1993 31.3747C85.1993 34.7817 84.6171 37.7359 83.4527 40.2372C82.2882 42.6954 80.671 44.6146 78.6009 45.9946C76.5308 47.3315 74.1157 48 71.3556 48ZM73.167 39.1375C75.1077 39.1375 76.7033 38.4259 77.954 37.0027C79.2478 35.5364 79.8947 33.6604 79.8947 31.3747C79.8947 29.1321 79.2478 27.2992 77.954 25.876C76.7033 24.4097 75.1077 23.6765 73.167 23.6765C71.2262 23.6765 69.609 24.4097 68.3152 25.876C67.0645 27.2992 66.4392 29.1321 66.4392 31.3747C66.4392 33.6604 67.0645 35.5364 68.3152 37.0027C69.609 38.4259 71.2262 39.1375 73.167 39.1375ZM81.8354 47.2237L79.4419 39.1375H80.0241V24.3881H79.4419V3.16981H88.8866V47.2237H81.8354Z" fill="#FED430"/>
</svg>
