<svg width="354" height="122" viewBox="0 0 354 122" fill="none" xmlns="http://www.w3.org/2000/svg">
<path fill-rule="evenodd" clip-rule="evenodd" d="M352.814 72.6462C355.06 76.1812 354.022 80.872 350.494 83.1234L308.059 110.206C304.737 112.326 300.347 111.54 297.963 108.399L282.856 88.4928C280.324 85.1569 280.97 80.3959 284.299 77.8588C287.628 75.3217 292.379 75.9692 294.911 79.3051L305.8 93.6531L342.358 70.3218C345.886 68.0704 350.567 69.1111 352.814 72.6462Z" fill="#3C62DD"/>
<path d="M298.689 116.188C293.375 118.652 287.456 120.027 281.216 120.027C258.213 120.027 239.566 101.34 239.566 78.2895C239.566 55.2385 258.213 36.552 281.216 36.552C301.225 36.552 317.938 50.6903 321.95 69.5413L302.041 83.5067H301.385C301.814 81.8391 302.041 80.091 302.041 78.2895C302.041 66.764 292.718 57.4207 281.216 57.4207C269.715 57.4207 260.391 66.764 260.391 78.2895C260.391 89.815 269.715 99.1582 281.216 99.1582C282.08 99.1582 282.932 99.1055 283.768 99.0032L283.819 99.1582L298.689 116.188Z" fill="#3C62DD"/>
<path d="M0 120.027V8.0566H39.0502C50.645 8.0566 60.599 10.3037 68.9122 14.7978C77.3348 19.1824 83.7885 25.5948 88.2732 34.035C92.8674 42.3657 95.1644 52.3953 95.1644 64.124C95.1644 75.9623 92.8674 86.0467 88.2732 94.3774C83.7885 102.708 77.3348 109.066 68.9122 113.45C60.4896 117.835 50.4809 120.027 38.8862 120.027H0ZM23.9552 105.887L14.4387 96.8437H37.2454C43.9178 96.8437 49.7152 95.7475 54.6375 93.5553C59.6692 91.2534 63.5523 87.6909 66.2869 82.8679C69.1309 78.0449 70.5529 71.797 70.5529 64.124C70.5529 56.5606 69.1856 50.3675 66.451 45.5445C63.7164 40.7215 59.8333 37.159 54.8016 34.8571C49.8793 32.4456 44.0819 31.2399 37.4095 31.2399H13.2902L23.9552 24.1698V105.887Z" fill="#3C62DD"/>
<path d="M131.447 120.027H107.492V39.6253H131.447V120.027ZM105.359 14.3046C105.359 10.0296 106.617 6.57682 109.133 3.94609C111.758 1.31536 115.204 0 119.47 0C123.736 0 127.126 1.31536 129.642 3.94609C132.268 6.57682 133.58 10.0296 133.58 14.3046C133.58 18.4699 132.268 21.8679 129.642 24.4987C127.126 27.0198 123.736 28.2803 119.47 28.2803C115.204 28.2803 111.758 27.0198 109.133 24.4987C106.617 21.8679 105.359 18.4699 105.359 14.3046Z" fill="#3C62DD"/>
<path d="M180.983 122C173.764 122 167.365 120.246 161.786 116.739C156.207 113.121 151.832 108.134 148.66 101.776C145.597 95.3091 144.066 87.965 144.066 79.7439C144.066 71.5229 145.652 64.2336 148.824 57.876C151.996 51.5184 156.371 46.5858 161.95 43.0782C167.529 39.4609 173.928 37.6523 181.147 37.6523C188.257 37.6523 194.383 39.2965 199.524 42.5849C204.774 45.7637 208.821 50.4771 211.665 56.7251C214.619 62.973 216.095 70.646 216.095 79.7439C216.095 88.4034 214.619 95.912 211.665 102.27C208.712 108.518 204.61 113.395 199.359 116.903C194.109 120.301 187.984 122 180.983 122ZM185.577 99.4744C190.499 99.4744 194.547 97.6658 197.719 94.0485C201 90.3217 202.641 85.5535 202.641 79.7439C202.641 74.044 201 69.3854 197.719 65.7682C194.547 62.0413 190.499 60.1779 185.577 60.1779C180.655 60.1779 176.553 62.0413 173.271 65.7682C170.099 69.3854 168.513 74.044 168.513 79.7439C168.513 85.5535 170.099 90.3217 173.271 94.0485C176.553 97.6658 180.655 99.4744 185.577 99.4744ZM207.563 120.027L201.492 99.4744H202.969V61.9865H201.492V8.0566H225.448V120.027H207.563Z" fill="#3C62DD"/>
</svg>
